<svg width="1920" height="671" viewBox="0 0 1920 671" fill="none" xmlns="http://www.w3.org/2000/svg">
<path d="M0 0H1920V671H0V0Z" fill="black"/>
<path d="M0 0H1920V671H0V0Z" fill="black"/>
<path d="M1510.2 113.499L1468.11 161.812L1397.13 193.166V257.157L1351 331.979L1386.57 381.575L1370.73 465.945V544.473L1429.9 561.432L1520.76 623L1562.86 577.109L1653.56 531.219L1673.29 577.109L1754.83 597.632L1757.77 588.938L1715.15 561.432L1684.63 496.159L1550.74 567.846L1446.73 513.302L1489.6 198.97L1537.85 142.43L1562.86 76.5867L1619.39 136.159L1715.15 81.0895L1695.65 66.4679L1619.39 113.499L1537.85 23L1510.2 113.499Z" fill="white"/>
<path d="M1715.15 81.0895L1734.64 95.711L1796.92 142.43L1754.83 223.38L1804.84 305.47H1916.67L1845.69 427.323L1789.16 496.159L1757.77 588.938M1715.15 81.0895L1695.65 66.4679L1619.39 113.499L1537.85 23L1510.2 113.499L1468.11 161.812L1397.13 193.166V257.157L1351 331.979L1386.57 381.575L1370.73 465.945V544.473L1429.9 561.432L1520.76 623L1562.86 577.109L1653.56 531.219L1673.29 577.109L1754.83 597.632L1757.77 588.938M1715.15 81.0895L1619.39 136.159L1562.86 76.5867L1537.85 142.43L1489.6 198.97L1446.73 513.302L1550.74 567.846L1684.63 496.159L1715.15 561.432L1757.77 588.938" stroke="white" stroke-width="5" stroke-linejoin="round"/>
<path d="M1204.62 406.099L1191.69 410.684L1187.05 425.153M1220.58 404.163L1228.15 422.3L1223.91 428.413M1204.62 393.872L1193.51 403.246H1179.27V423.421L1172 440.131L1189.17 451.951L1208.96 460L1212.3 434.425L1233 437.787L1231.79 417.001L1228.15 390L1204.62 393.872Z" stroke="white" stroke-width="5" stroke-linejoin="round"/>
<path d="M1284.68 214.378L1277.3 226.259L1282.05 242.873M1283.46 267.24L1291.95 270.563L1305.69 247.404M1282.05 203L1267 221.124L1272.35 239.248L1267 255.157L1270.03 272.879L1294.07 276L1317 255.157L1309.63 221.124L1282.05 203Z" stroke="white" stroke-width="5" stroke-linejoin="round"/>
<path d="M1238.09 618.553C1236.39 620.251 1226.04 631.86 1221.07 637.452L1244.17 650.59M1235.97 593.894L1239.51 577.622L1249.04 592.782M1262.92 589.144L1235.97 566L1228.16 604.809L1208 643.516L1248.73 661L1292 650.59L1289.37 607.436L1262.92 589.144Z" stroke="white" stroke-width="5" stroke-linejoin="round"/>
<path d="M1343.1 486.686L1346.36 496.7L1331.7 509.179M1294.1 482.148L1286.35 473.22L1294.89 467.448M1326.37 469.668L1346.36 473.22L1351 499.166L1326.37 526L1294.1 520.771L1295.58 495.812L1279 473.22L1295.58 460L1326.37 469.668Z" stroke="white" stroke-width="5" stroke-linejoin="round"/>
<path d="M1403.79 247.949C1390.75 346.333 1410.91 466.484 1428.81 499.35C1445.54 521.342 1473.45 519.207 1493.17 512.778C1504.38 508 1497.64 447.518 1482.01 403.122C1469.52 367.604 1507.03 324.458 1508.44 295.471C1505.87 274.91 1503.16 260.665 1500.34 242.13C1495.17 221.548 1495.52 209.264 1482.01 190.298C1468.28 171.01 1446.54 169.609 1435.74 181.354C1427.16 192.669 1427.67 189.652 1414.48 216.699C1408.17 229.63 1406.72 241.52 1403.79 247.949Z" fill="black"/>
<path d="M1428.81 499.35C1410.91 466.484 1390.75 346.333 1403.79 247.949C1406.72 241.52 1408.17 229.63 1414.48 216.699C1427.67 189.652 1427.16 192.669 1435.74 181.354C1446.54 169.609 1468.28 171.01 1482.01 190.298M1428.81 499.35C1450.32 527.626 1490.31 516.017 1507.62 506.678L1533.22 487.281L1591.6 436.742M1428.81 499.35C1445.54 521.342 1473.45 519.207 1493.17 512.778C1504.38 508 1497.64 447.518 1482.01 403.122C1469.52 367.604 1507.03 324.458 1508.44 295.471M1591.6 436.742L1592.89 380.492C1592.99 376.61 1589.7 367.685 1584.67 360.126M1591.6 436.742C1657.57 392.561 1793.74 299.229 1796.75 292.505M1482.01 190.298C1495.52 209.264 1495.17 221.548 1500.34 242.13C1503.16 260.665 1505.87 274.91 1508.44 295.471M1482.01 190.298C1490.02 197.841 1502.71 218.332 1504.33 224.889C1506.68 234.372 1517.12 326.934 1518.19 336.096C1519.25 345.147 1521.24 354.199 1527.82 358.79M1584.67 360.126C1579.78 352.787 1573.25 346.737 1566.58 347.841C1554.96 349.766 1539.63 358.91 1527.82 358.79M1584.67 360.126C1642.81 327.044 1760.97 256.958 1765.39 242.13M1508.44 295.471C1511.08 316.567 1508.41 341.641 1514.55 351.29C1517.79 356.755 1522.44 358.735 1527.82 358.79M1508.44 295.471C1507.03 324.458 1480.67 374.824 1493.17 410.341C1508.79 454.738 1514.28 504.639 1503 508.965" stroke="white" stroke-width="5" stroke-linejoin="round"/>
<path d="M1435.5 449.06C1460.16 441.556 1472.46 435.281 1475.53 433.081C1478.29 430.998 1481.64 426.053 1473.01 422.937C1464.37 419.82 1439.52 419.382 1428.17 419.552" stroke="white" stroke-width="5" stroke-linecap="round" stroke-linejoin="round"/>
<path d="M1418.63 391.533C1451.46 390.198 1464.16 393.288 1466.41 394.999" stroke="white" stroke-width="5" stroke-linecap="round" stroke-linejoin="round"/>
<path d="M1471.17 408.15C1463.11 391.075 1465.67 384.255 1467.96 382.98" stroke="white" stroke-width="5" stroke-linecap="round" stroke-linejoin="round"/>
<path d="M1425.78 402.511C1414.2 388.389 1414.64 380.359 1416.31 378.109" stroke="white" stroke-width="5" stroke-linecap="round" stroke-linejoin="round"/>
<path d="M1465.34 370.229C1462.49 366.921 1447.22 359.611 1408.94 356.836C1409.71 340.218 1420.91 327.298 1427.26 331.238C1433.6 335.177 1433.78 345.365 1436.88 352.556C1439.07 357.651 1441.37 366.411 1448.63 353.535C1455.89 340.659 1469.88 338.334 1471.32 352.081C1472.47 363.078 1467.81 368.762 1465.34 370.229Z" stroke="white" stroke-width="5" stroke-linecap="round" stroke-linejoin="round"/>
<path d="M1432.78 286.837C1430.9 285.441 1414.58 287.162 1416.56 312.848C1462.2 330.59 1458.95 329.83 1473.68 331.486C1483.48 332.587 1483.84 311.256 1481.79 303.706" stroke="white" stroke-width="5" stroke-linecap="round" stroke-linejoin="round"/>
<path d="M1445.26 324.137C1452.32 307.245 1458.47 302.617 1460.66 302.414" stroke="white" stroke-width="5" stroke-linecap="round" stroke-linejoin="round"/>
</svg>
